<?xml version="1.0" encoding="utf-8"?>
<!-- Svg Vector Icons : http://www.onlinewebfonts.com/icon -->
<!DOCTYPE svg PUBLIC "-//W3C//DTD SVG 1.1//EN" "http://www.w3.org/Graphics/SVG/1.1/DTD/svg11.dtd">
<svg fill="#fff"  version="1.1" xmlns="http://www.w3.org/2000/svg" xmlns:xlink="http://www.w3.org/1999/xlink" x="0px" y="0px" viewBox="0 0 1000 1000" enable-background="new 0 0 1000 1000" xml:space="preserve">
<metadata> Svg Vector Icons : http://www.onlinewebfonts.com/icon </metadata>
<g><path d="M500,10C229.4,10,10,229.4,10,500s219.4,490,490,490c270.6,0,490-219.4,490-490C990,229.4,770.6,10,500,10 M500,945.5C254,945.5,54.5,746,54.5,500C54.5,254,254,54.5,500,54.5C746,54.5,945.5,254,945.5,500C945.5,746,746,945.5,500,945.5 M544.3,394.2c0-18,1.8-27.7,29.6-27.7h37v-67h-59.3c-71.2,0-96.3,33.5-96.3,89.9V433H411v67h44.4v200.5h88.8V500h59.3l7.9-67h-67.2L544.3,394.2L544.3,394.2z"/></g>

</svg>